<?xml version="1.0"?>
<!-- Converted with SVG Converter - Version 0.9.5 (Compiled Mon May 30 09:08:51 2011) - Copyright (C) 2011 Nokia -->
<svg xmlns="http://www.w3.org/2000/svg" width="365" x="0" version="1.1" y="0" height="401" xmlns:xlink="http://www.w3.org/1999/xlink" baseProfile="tiny" xml:space="preserve">
 <defs>
  <rect width="365" x="0" y="0" height="401" id="MapFrame"/>
 </defs>
 <g id="Map">
  <g style="fill:#F1EEE8;stroke:#000000" id="Map_background">
   <g id="map_background">
    <rect width="365" x="0" y="0" height="401" style="stroke:none" id="Map_Background_Fill"/>
   </g>
  </g>
  <g style="stroke-linejoin:round;stroke:#923A99;stroke-opacity:0.5;stroke-width:1.1;fill:none" id="Line_artwork">
   <g id="boundary_country">
    <path d="M237.2 300.83 l1.29 -0.16 1.26 -0.17 1.22 -0.16 1.22 -0.16 1.35 -0.21 1.38 -0.16 1.23 -0.11 1.31 -0.03 1.11 -0.56 1.24 0.06 1.25 0.39 1.27 0.21 1.3 0.22 1.25 0.32 1.08 -1.19 1.23 0.17 0.55 -1.95 1.04 0.83 1.46 -0.13 1.42 0.09 0.7 -1.02 -1.2 -0.72 -0.57 -1.15 -1.05 -0.74 -1.15 -0.94 -1.26 -0.29 -0.23 -1.25 0.55 -1.11 -0.52 -1.2 -0.03 -1.23 -0.36 -1.18 -0.71 -1.06 -1.24 -0.08 -0.99 -1.66 -0.79 -0.94 -0.9 -0.92 -0.5 -1.19 0 -1.25 -1.35 0.32 -1.18 0.77 -4.96 0.47 -6.94 -0.42 -1.36 -0.03 -0.39 1.27 0 1.41 0.36 1.17 0.27 1.23 -0.08 1.24 -0.6 1.14 -0.57 1.11 -1.33 6.56 1.67 0.33 0.89 0.89 0.38 2.23 0.97 0.94 -1.22 0.13 -1.23 0.13 -1.23 0.12 -1.23 0.12 -1.31 0.13 -1.26 0.12 -1.23 0.12 -1.24 0.12 -1.26 0.13 -1.24 0.13 -1.24 0.13 -1.26 0.13 -1.29 0.13 -1.24 0.15 -1.24 0.16 -1.23 0.16 -1.22 0.17 -1.22 0.2 -1.22 0.21 -1.22 0.22 -1.22 0.21 -1.22 0.19 -1.29 0.09 -1.25 0.13 -1.32 0.11 -1.31 0.09 -1.25 0.07 -1.23 0.08 -1.27 0.09 -1.31 0.08 -1.26 0.08 -1.24 0.12 -1.25 0.08 -1.24 0.07 -1.29 0.07 -1.24 0.08 -1.33 0.08 -1.23 0.1 -1.23 0.1 -1.25 0.1 -1.23 0.12 -1.23 0.11 -1.27 0.13 -1.25 0.13 -1.23 0.13 -1.32 0.15 -1.27 0.15 -1.31 0.15 -1.25 0.13 -1.07 -5.84 -0.74 -11.2 -2.22 0.32 -4.79 -6.21 -1.95 -0.51 -4.75 -3.28 -4.28 2.88 -7.3 2.27 0.06 1.28 0.57 1.52 0.16 1.77 -0.94 0.95 -0.46 1.2 -0.24 1.2 -1.43 0.94 -1.06 0.82 -0.86 -1.32 -0.06 -1.51 -0.49 -1.47 0.33 -1.31 -0.88 -4.25 -1.31 -0.08 -1.08 0.69 -1.22 0.01 -0.47 -1.34 -0.58 -1.24 0.3 -1.48 0.87 -1.16 0.96 -1.05 -1.65 0.24 -1.86 -0.39 -1.09 3.45 -1.18 -0.65 -1.35 -0.39 -1.18 0.64 -1.19 0.62 -1.41 -0.07 -1.23 0.09 -1.05 0.78 -1.16 0.5 -0.64 1.06 -0.21 1.32 -1.44 9.56 3.15 2.05 0.14 1.37 2.01 1.68 1.26 1.98 -1.07 1.39 0.09 2.78 1.26 1.67 0.13 1.25 -0.81 1.13 -0.04 1.31 -0.67 1.17 -1.21 0.6 -1.12 0.6 0.73 1.22 1.33 0.17 1.31 0.11 0.94 0.86 0.57 1.79 1.17 -0.42 1.22 -0.25 1.06 -0.62 1.23 -0.36 1.15 -0.46 1.05 -0.67 1.08 -0.59 1.18 -0.42 1.1 -0.57 0.87 -0.88 1.11 -0.52 1.23 -0.16 1.23 -0.31 1.19 -0.43 0.99 -0.73 1.2 -0.29 1.15 -0.47 1.19 -0.41 1.2 -0.36 1.16 -0.41 1.27 -0.28 1.24 -0.23 1.28 -0.21 1.21 -0.16 1.21 -0.19 1.25 -0.15 1.27 -0.16 1.23 -0.16 1.21 -0.17 1.18 -0.37 1.21 -0.2 1.24 -0.15 1.24 -0.15 1.21 -0.16 1.23 -0.16 1.24 -0.15 0.22 -0.01"/>
    <path d="M255.39 300.53 l1.17 0.45 1.2 0.43 1.24 0.31 1.27 0.26 1.27 0.22 1.22 0.25 1.28 0.13 1.23 0.19 1.23 0.19 1.27 0.21 1.22 0.17 1.26 0.1 1.26 0.08 1.26 0.13 1.22 0.18 1.26 0.19 1.24 0.19 1.26 0.21 1.26 0.22 1.26 0.22 1.24 0.22 1.26 0.23 1.24 0.21 1.19 0.3 1.23 0.21 1.24 0.23 1.26 0.23 1.45 0.31 1.31 0.27 1.26 0.27 -0.04 -1.36 2.11 -0.81 1.45 0.44 1.44 0.15 1.17 0.49 1.24 0.49 0.67 -1.06 1.22 0.14 1.25 0 1.23 -0.33 1.09 0.6 1.28 -0.26 1.04 0.74 1.11 -0.55 1.08 0.64 1.16 -0.48 0.71 -1.1 -0.71 -1.04 0 -1.25 -0.75 -0.98 -0.05 -1.27 -0.14 -1.24 -0.96 -0.77 -0.26 -1.22 0.9 -0.84 -0.34 -1.22 0.19 -1.22 1.17 0.47 1.13 -2.16 -0.55 -1.12 -0.69 -1.4 -0.83 -5.02 0.18 -2.86 -0.72 -1.01 -1.16 -0.44 -1.19 -0.37 -1.03 -0.7 -1.22 -0.3 -0.95 0.8 -1.2 0.23 -1.14 0.46 -0.93 -0.82 -0.13 -4.04 -3.65 0.34 0.32 -7.47 -2.11 -5.06 -0.55 -1.31 -1.5 -8.62 -1.94 -3.57 -0.66 -1.41 -0.89 -0.88 0.1 -1.24 -0.28 -1.2 -2.57 -9.49 -0.48 -1.88 0.15 -3.03 -1.14 -0.69 0.02 -1.27 0.53 -1.12 0.64 -1.16 0.55 -1.12 0.61 -1.15 -0.2 -1.21 -0.85 -0.91 -0.12 -1.24 0.02 -1.33 4.65 -7.28 1.5 -2.53 1.11 -1.88 -0.04 -1.26 -0.88 -1.04 -1.13 -1.56 -2.63 -2.26 -1.34 -0.51 -0.51 -1.49 -0.93 -1.08 -0.45 -4.29 -1.2 -0.59 -1.39 0 0.13 1.27 -0.1 1.23 -4.61 2.06 -0.89 -0.85 -0.53 -1.11 -0.28 -1.2 -0.36 -1.18 -1.02 -0.7 -1.14 -0.46 -1.22 -0.21 -1.37 -0.57 0.41 -1.24 0.56 -1.33 -0.21 -1.27 -0.96 -0.98 -0.47 -1.28 -1.16 -0.6 -1.26 -0.69 -0.97 -0.93 1.03 -0.82 0.21 -1.27 -0.91 -1.19 -1.23 0.16 -1.06 0.7 -0.99 -0.8 -0.63 -1.2 -0.33 -1.28 -1.36 -0.42 -1.08 -0.83 -0.29 -1.23 0.14 -1.27 -0.22 -1.33 -1.24 0.14 -1.33 -0.04 -1.24 -0.06 -1.05 -0.67 -0.74 -0.98 -1.3 0.13 0.48 -1.17 -0.49 -1.16 0.32 -1.34 -0.24 -1.41 -1.13 -0.78 -1.31 -0.01 -1.44 -0.44 -1.48 -0.31 0.84 -1.06 1.01 -0.78 0.91 -0.98 -0.56 -1.1 -1.31 0.41 -1.28 0.27 -1.28 -0.13 -0.1 -1.26 0.98 -0.82 1.31 -0.28 -0.84 -1.2 -1.27 -0.53 0.3 -1.28 0.37 -1.47 1.31 -0.46 1.42 0.23 -0.16 -1.23 -0.99 -1.11 -1.2 -1 -1.31 -0.17 -0.5 -1.29 0.91 -1.02 -0.18 -1.38 -1.32 -1.09 -0.92 -1.02 0.76 -0.97 1.23 0.08 1.52 0.16 1.25 -0.25 0.19 -1.22 -0.83 -1.09 0.42 -1.16 0.86 -1 -1.24 -0.38 -0.99 -0.87 1.11 -0.62 1.22 -0.55 1.38 -0.15 1.25 -0.04 1.03 1.08 1.12 0.89 1.18 0.85 0.3 1.34 -0.43 1.42 1.03 0.82 0.68 1.03 0.97 1.05 1.23 0.19 1.35 0.27 2.3 -0.29 0.59 -1.48 3.11 -0.16 0.89 1.04 -0.34 1.24 -0.24 1.23 0.38 1.24 1.1 0.57 0.85 -0.9 1.28 -0.4 1.33 -0.33 0.51 -1.19 1.16 0.55 1.1 -0.55 1 -0.83 0.82 -1.13 1.34 -0.21 1.33 -0.06 0.12 -1.44 0.3 -1.29 0.77 -1.12 0.24 -1.26 0.93 -0.95 0.74 -1.18 0.4 -1.25 1 -0.8 1.28 -0.44 1.08 -0.66 1.3 -0.72 0.79 -0.99 0.74 -1.15 0.57 -1.19 0.8 -1.01 1.21 -0.29 1.24 0.05 1.14 -0.46 1.77 -0.7 1.19 -0.91 1.35 0.24 1.25 0.18 8.5 -2.06 8.13 -4.81 0 -1.24 1.18 -0.9 -0.11 -1.23 -0.66 -1.21 -0.16 -1.47 0.16 -1.26 -1.28 -0.66 -0.51 -1.2 -0.24 -1.3 0.19 -1.24 -1.09 -0.85 -1.22 -0.12 -1.3 -0.26 -1.33 -0.14 -1.27 -1.2 0.72 -1.27 -0.07 -1.37 -0.41 -1.27 0.91 -0.88 1.29 -0.7 0.59 -1.31 0.64 -1.17 1.07 -0.76 1.11 -0.71 -0.36 -1.51 -1.17 -0.58 -1.21 -0.66 -0.29 -1.37 0.95 -0.82 0.97 -0.95 0.49 -1.27 -0.25 -1.41 -0.51 -1.13 -0.02 -1.27 0.23 -1.23 -0.98 0.82 -0.62 1.15 -0.53 1.22 -0.74 1.01 -1.27 0.2 -1.01 -0.74 -0.87 -0.89 -0.8 -0.95 -0.8 -0.95 -0.91 -1.03 -0.73 -1.02 -0.73 -1.02 -0.77 -0.99 -0.76 -0.99 -0.56 -1.19 -0.34 -1.33 -0.55 -1.21 -0.56 -1.19 -0.52 -1.28 -0.59 -1.16 -0.76 -0.98 -1.37 -0.27 -1.3 0.45 -1.37 -0.18 -0.63 -1.14 -0.45 -1.23 -0.31 -1.43 -0.73 -1.02 -1.03 -0.99 -1.31 0.09 -1.29 -0.45 -0.1 -1.31 -0.03 -1.38 -1.37 0.1 -0.88 0.87 -1.02 0.74 -0.64 1.12 -1.3 -0.18 -0.77 -0.99 0.43 -1.33 -1.23 0.1 -1.3 -0.54 -1.16 -0.64 -1.22 -0.18 -1.38 0.34 -1.4 -0.57 -1.23 -0.18 -1.37 0.03 -1.3 -0.11 -1.37 -0.04 -1.33 0.41 -1.34 -0.14 -0.7 -1.06 -1.23 -0.33 -0.91 0.85 -1.19 -0.51 -1.24 0.17 -1.51 0.27 -1.37 0.5 -0.81 0.94 -1.37 0.45 -1.76 0.06 -1.75 0.07 -1.17 0.87 -1.15 0.6 -1.43 0.34 -0.81 0.95 -0.81 1.08 -1.36 -0.03 -0.92 0.84 -1.34 -0.01 -1.33 -0.43 -1.26 -0.5 -1.23 0.38 -1.06 0.7 -0.74 1.06 -0.7 1.05 -1.44 0.31 -1.23 0.17 -1.17 0.6 -0.17 1.22 -0.67 1.09 -0.14 1.4 -0.29 1.33 -0.63 1.12 -0.5 1.15 0.86 0.88 0.72 1.05 1.02 0.85 0.71 1.05 -0.13 1.64 1.22 1.28 1.35 1.03 -0.16 1.29 0.96 1.28 -0.42 1.6 -1.04 1.08 1.58 2.29 -0.07 1.3 -0.77 1.21 1.21 1.03 0.85 -0.98 1.31 -0.68 1.3 0.1 1.26 0.54 1.35 0.89 1.53 0.66 1.66 0.33 1.34 0.16 0.81 1.35 1.58 0.28 1.24 0.14 -1.11 1.18 0.03 1.33 1.29 0.52 1.43 -0.7 0.43 1.6 -1.32 0.11 -0.8 1.22 0.77 1.06 1.18 0.79 1.5 0.4 1.03 1.18 -1.18 0.85 -1.36 0.63 -1 1.05 -1.28 -0.26 0.51 1.23 1.76 0.92 0.34 1.22 1.06 0.8 0.87 1.15 -1.26 0.55 1.34 0.49 0.73 1.11 0.7 1.51 -1.24 0.79 -1.22 -0.54 0.38 1.42 -1.33 1.12 -1.36 0.01 0.69 1.11 -1.4 0.67 -1.17 0.59 -1.12 0.78 -0.06 1.36 0.63 1.45 0.68 1.36 -1.04 0.92 -1.35 0.87 -1.23 0.48 0.12 1.45 1.23 0.18 1.2 0.61 -0.47 1.26 -0.1 1.17"/>
    <path d="M261.64 298.13 l0.37 1.48 -0.01 1.32 1.02 -0.78 1.29 0.09 0.7 -1.08 1.38 -0.07 1.14 -0.61 -0.4 -1.22 -0.49 -1.25 -0.45 -1.21 -0.03 -1.27 -0.12 -1.64 -0.83 -1.04 0.16 -1.47 0.18 -1.27 0.04 -1.35 0.87 -1.38 0.9 -0.89 0.39 -1.33 1 -0.81 0.15 -1.72 0.82 -0.98 1.03 -0.8 1.16 -1.48 1.22 -0.61 0.83 -1.01 0.97 -1.33 1.07 -0.89 1.16 -0.64 -0.08 -1.27 1.27 0.52 1.15 -0.76 0.51 -1.31 1.21 -1.65 1.23 -1.65 0.4 -1.4 1.47 -2.05 0.81 -0.94 1.16 -1.19 0.56 -1.12 0.31 -1.24 0.02 -1.26 0.28 -1.22 0.53 -1.3 0.61 -1.41 -0.39 -1.2 0.33 -1.25 0.71 -1.16 0.44 -1.3"/>
    <path d="M182.4 233.33 l1.01 -0.78 -0.13 -1.45 0.79 -1.45 1.17 -1.19 1.4 -0.31 -0.04 -1.42 -0.26 -1.4 0.32 -1.51 0.94 -0.83 1.23 -0.18 1.3 0.72 1.29 0.02 1.06 -1.05 0.61 -1.15 1.22 -0.97 1.52 -0.64 1.14 -0.69 0.45 -1.46 0.13 -1.3 -1.21 -0.58 -0.67 -1.35 -0.36 -1.29 -0.72 -1.04 -1.35 -0.16 -1.13 -0.71 -0.95 -1.03 -0.91 -0.88 -0.77 -0.96 -1.37 -0.23 0.46 -1.26 -1.38 -0.01 -1.32 -0.13 -1.19 -0.34 -1.32 -0.38 -1.19 0.32 -1.43 0.78 -1.35 0.25 -1.2 0.55 -1.25 0.5 -1.33 0.01 -1.25 -0.05 -0.65 1.15 -0.61 1.2 -0.36 1.54 -0.07 1.32 -0.75 1.15 -0.72 1.09 0.5 1.3 1.23 0.67 0.57 1.65 0.94 1.32 1.21 1.01 0.25 1.36 0.63 1.07 0.82 1.62 0.24 1.33 -0.22 1.32 -0.38 1.54 0.75 1.01 1.65 -0.09 1.98 0.28 1.22 0.71 -0.28 1.33 -0.57 1.27 0.89 1.35 -0.23 1.66 -0.29 1.5 -0.2 1.77 0.69 1.6 1.06 0.72 1.39 -0.78 1.73 -0.27 1.37 0.42 2.1 1.87 2.72 2.53 2.24 -0.69 6.1 -0.08 0.28 2.28 4.72 1.25 1.45 -0.28 1.42 -0.01 1.42 -0.28 1.15 -0.65 1.01 -0.8 6.26 0.68 1.23 0 1.22 0.47 1.22 0.47 1.19 -0.29 1.26 0.13 1.66 -1.11 1.32 0.89 0.63 1.08 1.26 0.48 0.96 0.86 1.21 0.2 1.21 0.22 1.38 0.05 1.15 0.55 1.19 -0.91 1.26 0.13 1.28 0.32 0.67 -1.41 0.12 -1.25 1.17 -0.72 1.42 -1.03 0.95 1.19 1.02 1.46 1.4 1.25 1.56 1.92 1.15 1 -0.09 1.26 0.36 1.25 -1.14 1.83 -1.38 2.12 -1.23 1.17 -0.94 1.09 -0.65 1.07 0.63 1.09 0.12 1.23 -0.56 1.12 0.12 1.54 0.69 1.27 1.12 0.65 1.39 0.52 1.24 0.01 1.24 0.63 0.9 1.13 -0.22 1.25 0.41 1.26 0.17 1.47 -0.09 1.38 0.43 1.17 -0.31 0.15"/>
    <path d="M235.01 281.48 l-4.9 0.9 -1.11 -0.54 -1.27 -0.56 -0.96 -0.87 -0.78 -1.16 -1.17 0.85 -6.01 1.64 -2.69 0.35 -2.79 0.07 -4.61 1.1 -3.81 0.89 0.09 -1.25 0.19 -1.99 1.22 -0.26 1.75 -2.65 -0.91 -0.96 -0.9 -1.54 -3.06 -1.43 -2.35 -3.13 -3.71 -4.97 0.08 -1.59 -0.36 -1.23 -0.77 -3.64 1.23 -1.17 1 -1.44 -0.79 -1.97 -3.48 -0.73 -6.22 -1.31 -2.51 -2.45 1.69 -8 0.07 -0.31"/>
    <path d="M213.65 247.05 l-0.53 -1.18 -1.27 -0.27 0.43 -1.19 0.05 -1.24 0.85 -1 -1.15 -0.75 1.17 -0.35 -1.06 -0.71 -0.38 -1.26 -0.33 -1.3 -0.82 -0.93 -1.21 -0.37 -0.98 -0.75 0.76 -1.07 -0.41 -1.22 1.28 0.13 -0.22 -1.28 -0.61 -1.21 -1.78 -1.24 -1.25 -0.5 -1.32 0.11 -0.98 0.78 -1.04 0.7 -1.26 -0.12 -0.58 -1.25 0.03 -1.3 -0.99 -0.8 0.43 -1.18 0.79 -1.01 -1.15 -0.6 -0.83 -1.03 0.46 -1.29 0.32 -1.2 0 -1.46 0.61 -1.32 1.45 0.09 1.33 0.14 1.25 -0.24 1.32 -0.97 1.34 -0.16 0.52 -1.17 0.03 -1.26 -0.21 -1.3 0.74 -1.2 0.16 -1.37 -0.68 -1.27 -0.48 -1.13 1.2 -0.66 0.77 -1.8 0.43 -2.11 0.45 -1.35 0.19 -1.33 0.48 -1.38 1.34 -0.98 -0.07 -1.47 -0.19 -1.22 -0.74 -0.99 -0.33 -1.39 -0.34 -1.53 -0.59 -1.51 -0.65 -1.21 0.94 -0.9 2.18 -1.26 1.2 -0.61 1.25 -0.11 -0.97 -0.77 0.23 -1.31 -1.3 -0.41 -1.22 -0.45 -1.03 -0.83 -1.63 -1.86 -1.14 0.72 -1.27 -0.16 -1.02 0.74 -1.34 -0.31 -1.24 0.19 -0.89 1.27 -0.86 0.95 -0.04 1.37 -1.29 0.09 -1.29 0.31 -1.39 0.47 -0.99 0.95 -0.48 1.2 1.42 0.29 -1.28 0.4 -1.23 0.42 0.06 1.33 -1.09 0.64 -1.25 0.61 -1.24 0.11 -1.37 0.35 -1.14 0.54 -0.89 0.91 -0.4 1.17 -1.23 0.41 -1.24 -0.17 -0.81 0.94 -0.73 1.08 -1.02 0.67 -1.27 -0.38 -1.29 0.21 -1.24 -0.08 -0.93 -0.81 -0.42 -1.15 -1.23 -0.09 -0.32 -1.21 -1.22 0.21 -1.3 0.02 -0.65 1.08 -1.19 -0.63 -1.34 0.24 -1.4 0.37 -1.28 0.34 -1.22 0.21 -0.89 1.09 -1.11 0.76 1 1.53 1.46 0.52 1.21 0.83 0.55 1.76 1.74 -0.01 1.08 -0.71 1.43 0.46 1.09 0.63 -0.48 1.17 -0.09 2 1.15 1.43"/>
    <path d="M177.38 228.35 l-4.81 -0.08 -12.18 7.8 -9.54 -1.42 -5.5 -0.12 -3.38 -2.22 0.01 -2.07 -1.41 -0.97 -1.07 -2.23 0.39 -1.43 -1.08 -1.82 -0.2 -3.79 -0.95 -2.32 -0.63 -1.54 0.49 -5.17 9.95 -8.61 3.49 -0.46 -2.39 -0.85 -1.37 -0.53 -9.01 -3.01 -3.49 1.93 -1.88 1.63 -2.46 -0.34 -0.39 -1.18 -1.28 -1.19 -1.39 -0.82 -0.11 -1.72 0.01 -1.83 -0.01 -1.25 0.08 -1.52 0.69 -1.22 3.04 -2.4 -0.15 -3.27 10.93 -6.26 -2.01 -0.78 -1.47 -0.77 -1.4 -0.57 -0.14 -1.44 -0.42 -1.29 -0.86 -0.9 -1.1 -0.88 0.21 -1.27 0.09 -1.26 -0.2 -1.33 0.3 -1.28 0.23 -1.29 -0.52 -1.2 0.08 -1.24 0.64 -1.16 -0.62 -1.06 -0.85 -0.98 -1.04 -0.73 -0.1 -1.33 -0.15 -1.31 -0.19 -1.34 -0.4 -1.23 -0.22 -1.29 -0.36 -1.25 -0.4 -1.41 -0.57 -1.13 -0.52 -1.12 -0.13 -1.33 0.12 -1.49 -0.08 -1.28 -0.34 -1.32 0.01 -1.3 -0.57 -1.32 -1.21 -0.63 -1.17 -0.55 -0.85 -1.09 0.21 -1.29 -1.32 -0.36 -0.16 -1.33 1.36 -0.07 -0.09 -1.31 -0.21 -1.39 -0.54 -1.21 0.15 -1.28 -1.36 0.38 0.38 -1.27 0.35 -1.42 -1.03 -0.74 1.26 -0.34 -0.51 -1.19 0.92 -0.97 1.16 0.68 0.16 -1.24 0.26 -1.26 0.26 -1.3 -0.65 -1.29 -1.16 0.74 -0.97 -0.78 0 -1.24 -0.69 -1.02 -1.01 -0.8 -1.08 -0.6 -1.25 -0.59 -0.29 -1.4 -0.97 -1.01 -1.18 0.33 -1.07 0.62 -1.35 -0.64 -1.23 0.31 -1.12 0.6 -0.87 -0.91 -0.4 -1.42 0.3 -1.27 0.32 -2.49 -0.1 -1.24 0.16 -1.27 -1.23 -1.19 -2.21 0.42 -0.01 -1.42 0.16 -1.52 0.13 -1.6 0.17 -1.55 0.11 -1.62 0.12 -1.24 -1.36 -0.28 -0.61 -1.34 -0.23 -1.27 -1.01 -0.83 0.89 -1.01 0.23 -1.46 0.19 -1.37 0.12 -1.73 -0.11 -1.88 1.98 -1.52 -1.17 -0.93 -0.87 -0.92 0.3 -1.34 0.29 -1.33 0.27 -1.2 0.6 -1.18 0.21 -1.43 0.16 -1.44 0.64 -1.39 -0.76 -1 -0.19 -1.8 0.22 -1.32 0.12 -1.49 -0.37 -1.45 -0.96 -1.33 -1.33 -0.75 -1.35 -0.9 -1.07 -0.7 -1.64 0.01 -1.31 -0.27 -1.7 -0.33 -0.07 -1.44 0.97 -1.31 0.15 -1.38 0.59 -1.26 0.9 -1.28 1.04 -0.93 1.55 -0.95 1.22 -0.43 1.29 0.18 1.27 0.53 0.83 1.18 2.19 0.11 1.35 -0.64 1.2 -0.73 1.81 -0.66 1.37 -0.55 0.97 -0.79 -0.46 -1.39 0.17 -1.52 -1.1 -0.59 -1.04 -0.68 -0.06 -1.43 -0.24 -1.76 -0.72 -1.21 -0.45 -1.32 0.34 -1.2 0.62 -1.34 0.58 -1.36 -0.9 -0.87 -1.2 -0.51 -0.55 -1.19 0.36 -1.18 -0.19 -1.23 0.56 -1.12 0.01 -1.24 -0.44 -1.16 0.34 -1.22 1.16 -0.46 -0.3 -1.21 1.12 -0.55 0.95 0.83 0.52 1.27 1.35 0.4 1.03 0.74 0.9 0.97 1.2 0.39 1.3 0.12 1.29 0.26 1.28 0.51 0.88 -0.96 0.7 -1.2 -0.4 -1.38 -0.35 -2.67 0.6 -1.07 1.3 0.17 1.32 0.56 1.41 0.39 1.42 -1.06 1.15 -0.94 1.06 -0.8 1.41 0.45 -0.22 1.23 -0.11 1.36 0.65 1.06 0.96 0.89 -0.94 0.83 -0.26 1.22 0.74 1 -0.67 1.03 -1.1 0.78 -0.14 1.29 1.2 -0.32 0.93 0.87 1.18 0.49 -0.19 1.31 -0.2 1.22 1.19 1.06 -0.91 0.84 -0.36 1.17 0.92 0.97 -0.81 0.97 0.01 1.25 -0.18 1.21 -1.04 -0.65 -1.13 0.63 0.76 0.98 0.53 1.35 0.67 1.16 -1.14 0.47 -0.52 1.28 1.1 0.6 -0.74 1.21 -0.86 0.93 0.77 0.98 -0.68 1.07 -0.56 -1.28 -0.98 1.04 0.3 1.33 -1.26 -0.15 0.38 1.48 1.56 0.75 3.76 0.47 3.26 1.98 -2.67 0.55 -0.96 2.25 0.7 1.25 1.09 0.84 4.33 2.47 1.63 1.5 0.16 1.66 -1.23 0.55 -1.2 -0.33 -1.38 -0.01 -0.89 0.91 -0.18 1.33 -0.16 5.66 -1.32 1.01 0.17 5.85 -0.72 2.12 -5.84 2.55 -0.4 1.52 -0.05 1.37 -0.09 1.35 -0.05 1.44 -0.22 1.31 -0.89 1.74 -0.61 1.24 -1.24 0.03 -0.31 1.22 -1.46 3.21 -2.83 1.11 -1.19 1.22 -0.64 1.05 -0.83 -0.98 -0.75 -1.05 -0.66 -1.18 -0.38 -1.21 -2.84 -0.12 1.66 3.38 -2.71 -0.22 -1.32 -0.23 -1.27 -0.65 -0.98 0.88 -1.28 0.15 -0.13 -0.06"/>
    <path d="M165.19 198.04 l-0.02 -1.31 -1.06 -0.97 -1.24 -0.51 -0.99 -0.79 1.1 -1.06 -0.22 -1.29 -1.4 -0.71 -0.21 -1.31 0.45 -1.23 0.37 -1.43 -1.01 -0.94 0.02 -1.23 0.96 -1.11 1.48 -0.95 -0.77 -1.83 1.17 -0.86 1.92 -0.64 -1.05 -0.73 -1.44 -0.73 1.01 -0.84 -1.24 -0.59 0.85 -1.43 -0.19 -1.23 -1 -0.91 -1.32 -0.31 -1.78 -0.25 -1.59 -0.41 -1.25 -0.04 -1.36 -1.13 -1.82 0.81 -4.63 0.83 -1.43 -0.29 -1.85 -0.35 -0.39 1.21 -0.47 1.19 -0.35 1.2 -0.96 1.54 -0.77 1.06 -0.97 -0.35"/>
    <path d="M174.73 301.17 l6.13 3.34 1.99 -0.9 2.51 -1.74 1.17 -0.37 1.76 -0.27 1.39 0.35 1.87 1.03 2.69 -0.53 0.02 -4.77 0.02 -1.52 0.45 -1.37 0.24 -1.44 0.41 -1.34 0.38 -1.21 0.61 -1.16 0.32 -1.31 0.63 -1.15 -0.11 -1.47 -0.26 -1.64 0.72 -2.86 0.12 -3.04 3.16 -6.91"/>
    <path d="M185.44 250.42 l-2.01 -1.9 -8.25 3.76 -1.61 0.74 -2.08 -0.23 -7.78 -0.85 -3.23 -0.73 -2.25 8.16 -0.48 1.75 0.16 3.37 -2.22 1.31 -5.6 7.09 -1.78 -0.38 -0.73 2.17 -1.46 4.14 0.64 1.05 -0.2 1.23 -0.11 1.26 0.4 1.19 0.68 1.11 1.04 0.69 0.15 0.11"/>
    <path d="M272.36 192.86 l-1.24 0.77 -0.86 1.22 0.78 0.96 -1.12 0.62 -1.33 0.19 0.01 1.28 0.77 1.02 -0.31 1.19 -0.64 1.13 -1.27 -0.51 -1.25 -0.08 -0.19 1.42 0.36 1.24 0.6 1.13 1.2 0.89 1.22 0.22 0.04 1.34 -1.25 -0.42 -0.9 0.97 -0.78 0.96 -1.19 -0.39 -1.1 0.62 -1.19 0.8 -0.86 0.91 -1.54 0.3 -0.87 1.05 -0.59 1.42 -1.2 -0.37 -1.43 -1.05 -1.24 -0.47 -1.26 0.05 -1.18 0.33 -1.44 -0.1 -1.22 -0.39 -1.3 -0.12 -2.2 -0.17 -15.14 8.56 -0.03 1.29 -1.2 0.24 -1.04 0.71 -1.1 -0.84 -1.08 0.66 -0.39 1.17 -1.31 -0.05 1.18 0.66 -0.04 1.31 -1.29 -0.37 -0.54 1.35 -0.83 1 -1.17 -0.61 -1.22 0.41 -0.83 -1.13 0.26 1.28 0.44 3.47 1.48 3.8 -7.92 -1.48 -3.54 -1.4 -1.21 0.35 -0.52 -0.31"/>
    <path d="M258.85 213.56 l1.2 -0.39 1.23 -0.2 0.2 1.36 -0.46 1.21 -0.85 0.93 -0.85 1.11 0.68 1.26 0.84 0.97 -0.79 1.17 0.01 1.25 -1.29 0.31 -0.09 1.32 0.8 0.97 0.09 1.26 -0.98 0.81 0.51 1.26 0.46 1.14 -0.97 2.08 -1.17 0.39 -1.12 0.51 -1.43 0.49 -1.41 0.42 -1.08 0.67 -2.16 -0.14 -1.37 -0.7 -1.5 -0.01 -1.43 0.05 -1.22 1.02 -0.81 0.97 -1.13 0.8 0.01 1.37 -0.46 1.37 -1.15 0.7 -0.83 1.59 -0.37 1.63 0.43 1.58 -0.07 1.36 -0.14 1.27 0.65 1.15 0.12 0.58"/>
    <path d="M47.68 150.15 l-0.6 1.07 -0.14 1.23 -0.09 1.23 -0.77 1.04 1.19 0.42 0.95 0.82 0.42 1.17 0.76 0.97 0.93 1.2 1.2 0.31 0.93 -0.79 1.35 0.27 0.38 1.24 0.16 1.27 1.02 0.71 1.38 0.75 -0.07 1.28 1.08 0.73 1.33 0.23 1.12 0.63 0.92 0.92 1.08 0.91 1.54 0.26 1.19 -0.38 0.62 -1.1 1.26 0.46 1.39 -0.29 1.21 -0.36 1.42 -0.33 0.51 -1.38 0.49 -1.16 -0.64 -1.13 0.12 -1.33 0.17 -1.41 0.27 -1.88 0.92 -4.32 1.09 -1.03 1.52 -0.34 0.52 1.34 1.26 0.28 1.5 1.07 1.29 0.81 1.17 0.72 1.3 0.36 0.82 1.2 0.78 1.1 0.43 1.51 1.23 0.97 0.68 1.39 0.24 1.49 0.35 1.38 1.12 1.37 1.31 -0.39 1.25 -0.24 1.33 -0.47 0.72 -1.46 1.05 -0.65 0.42 -1.35 -0.28 -1.21 0.22 -1.31 -1.13 -0.72 -0.14 -1.3 -0.78 -1.69 0.68 -1.28 -0.08 -1.27 -0.87 -1.06 0.45 -1.29 -0.2 -1.26 -0.75 -1.05 -0.97 -0.91 1.14 -0.75 -0.26 -1.33 -0.97 -1.29 1.18 -0.39 -0.27 -1.59 -1.27 -0.45 0.54 -1.26 -1.03 -1.04 0 -1.39 -0.3 -1.46 0 -1.23 -0.16 -1.22 -1.14 -0.73 -1.19 -0.69 -0.5 -1.2 -0.21 -1.33 -0.58 -1.17 -0.22 -1.4 -0.77 -0.97 -0.97 -0.9 -1.09 -0.58 -1.48 -0.28 -1.29 -0.08 -1.21 -0.31 -0.06 -1.23 -0.7 -1.11 -1.07 -0.77 -1.04 -0.92 -1.16 -0.88 -0.8 -0.95 -1.03 -0.97 -1.1 -0.75 -1.24 -0.58 -0.38 -1.24 -0.7 -1.1 -0.5 -1.13 -1.09 -1.02 -1.32 -0.6 -1.11 -0.65 -1.39 -0.12 -0.66 -1.13 0.04 -1.33 -0.27 -1.24 -0.58 -1.24 -1.49 -0.77 -1.18 0.38 -1.19 -0.41 -1.25 0 -1.13 0.47 -1.24 0.19 -0.42 1.18 -1.22 0.37 -1.04 0.92 -1.43 0.83 -0.08 1.32 0.14 1.23 -0.27 1.54 -0.61 1.14 0.3 2.25 -1.21 0.35 -0.04 1.26 0.67 1.1 0.81 0.92 1.22 0.13 1.06 -0.7 1.2 0.36 1.14 0.45 1.17 0.46 1.23 -0.07 0.86 1.72 1.18 0.81 0.98 2.84 2.08 0.54 1.03 1.59 -0.45 1.55 -0.79 1.01 1.87 3.52 -0.23 1.23 -0.35 1.18 -0.14 1.22 0.83 0.94 0.51 1.13 -1.24 0.39 -1.38 0.17 -1.38 -0.22 -1.27 -0.68 -0.37 -1.25 -0.67 -1.22 -0.58 -1.4 -0.86 -0.9 -1.16 -0.42 -0.49 1.24 0.51 1.24 -0.78 1.01 -1.27 0.09 -1.12 -0.54 -0.93 -0.93 -0.37 -1.34 -0.71 -1.03 -1.35 0.04 -1.12 0.54 -1.28 -0.34 -1.46 -0.13 -1.19 -0.46 -1.31 0.23 -0.97 0.76 -1.3 -0.01 -1.27 0.15 -0.86 -0.87 -1.28 0.42 -0.84 0.97 -1.17 0.46 -0.39 1.17 0.26 1.2 0.19 1.22 0.58 1.1 -0.02 1.24 -0.38 1.17 0.33 1.19 -0.11 1.23 -0.8 0.99 -0.23 1.21 1.22 0.32 0.93 0.81 1.02 0.75 1.14 0.55 1.38 0.02 1.22 0.22 1.09 0.55 1.02 0.69 0.98 -0.75 0.73 -1.06 1.22 0.19 1.26 -0.12"/>
    <path d="M24.9 227.84 l-1.06 0.62 -1.09 0.63 -0.52 1.11 -1.13 0.71 -1.12 -0.61 -0.2 1.36 -0.29 1.32 -1.14 -0.5 -0.05 1.26 -0.42 1.17 -1.26 0 0.45 1.16 1.23 -0.09 1.17 0.5 0.78 0.98 0.66 1.03 0.99 0.75 1.03 -0.69 0.8 -1 -0.39 -1.19 1.23 0.1 0.28 1.21 1.02 0.7 0.09 1.29 0.97 0.92 0.42 1.27 -1.24 0.74 1.05 1.07 0.93 -0.81 1.2 -0.29 1.25 0.46 1.17 0.43 1.11 0.61 0.87 0.87 1.25 0.36 1.2 0.39 1.06 0.77 1.06 0.8 1.26 -0.2 1.2 -0.27 1.11 -0.59 1.21 -0.26 1.29 -0.23 1.16 -0.43 1.23 0.13 0.94 0.82 1.01 0.76 1.32 0.12 1.24 -0.09 0.77 1.18 0.95 0.83 1.09 0.82 0.81 0.99 -0.27 1.22 0.5 1.16 -0.89 0.93 -0.1 1.44 0.35 1.19 1.28 -0.05 1.28 0.46 -0.21 1.26 0.98 0.8 -0.42 1.16 -0.25 1.35 0.98 0.81 0.49 1.19 1.07 0.98 1.14 0.45 0.97 0.89 1.23 0.13 -0.6 -1.13 0.83 -0.94 0.48 1.18 0.98 0.76 1.26 0.13 0.87 0.87 1.38 -0.01 0.86 0.91 -0.12 1.25 1.24 -0.07 1.15 0.58 0.89 0.87 1.08 -0.73 0.24 -1.4 1.22 0.24 1.04 0.81 -0.56 1.13 -0.33 1.23 0.59 1.09 -0.57 1.1 0.3 1.25 0.2 1.28 0.56 1.11 0.46 1.2 16.37 -0.63 0.05 -1.62 -0.21 -6.14 0.06 -8.02 -0.01 -4.05 -2.03 -10.69 -2.06 -2.92 -1.25 -3.8 -2.7 -3.01 -3.23 -3.77 -4.93 -3.34 -4.4 -2.15 -2.37 -1.17 -0.39 -1.18 -0.76 -1.2 -0.76 -1.08 -0.1 -1.53 0.54 -1.16 -1.15 -0.73 -0.82 -1.27 -1.38 -0.53 -10.2 -0.51 -2.32 -4.09 -1.15 -0.57 -1.15 -0.48 -1.8 0.01 -1.65 -0.86 -1.25 0.66 -0.73 1.05 -1.6 0.67 -1.38 1.17 -0.17 1.77 -0.66 1.22 1.04 0.79 -0.76 1.28 -1.23 0.43 -1.02 0.93 -0.31 1.38 -0.6 1.2 -1.66 -0.71 -0.51 1.18 -0.17 1.37 -1.37 0.31 -0.13 1.31 0.24 1.32 -1.21 0.3 -1.68 0.62 -0.82 1.04 -5.57 -3.68 0.64 -1.06 0.24 -1.24 1 -0.75 0.58 -1.09 1.06 -0.67 0.65 -1.09 0.59 -1.28 0.66 -1.04 0.29 -1.27 -0.61 -1.08 -0.3 -1.19 1.08 -0.65 -0.35 -1.26 -0.17 -1.25 0.61 -1.12 1.04 -0.7 0.36 -1.23 -0.51 -1.11 -0.31 -1.21 -0.23 -1.25 0.08 -1.23 0.23 -1.21 0.76 -0.97 -0.06 -1.29 -1.09 -0.7 -0.97 -0.76 -0.78 -0.96 -1.05 -0.64 0.09 -1.24 -0.35 -1.18 -0.66 -1.06 -0.74 -1 -0.29 -1.21 0.08 -1.24 -0.04 -1.23 -0.44 -1.15 -0.05 -1.23 -0.18 -1.22 -0.26 -1.21 -0.3 -1.24 -0.74 -0.98 -1.22 -0.24 0.01 -1.24 0.89 -0.95 0.89 -0.85 0.85 -0.93 1.23 -0.22 0.05 1.29 1.11 0.52 1.28 -0.29 1.01 -0.69 0.93 1.15 1.9 0.58 1.56 1.09 0.96 0.78 0.87 -0.86 0.78 -1.11 -0.09 -1.28 0.41 -1.31 0.45 -1.18 0.91 -0.83 0.33 -1.27 0.6 -1.19 0.61 -1.24 0.36 -1.21 0.19 -1.25 -0.26 -1.39 -0.51 -1.12 -0.85 -1.2 0.53 -1.49 0.31 -1.2 0.6 -1.07 0.65 -1.08 0.27 -1.2 0.54 -1.12 0.52 -1.12 0.68 -1.04 1.25 0.24 1.21 -0.25 0.82 0.95 1.27 0.26 0.93 -0.12"/>
    <path d="M91.55 166.85 l1.41 0.2 0.38 1.23 -0.22 1.21 0.04 1.63 0.1 1.26 0.14 1.25 -0.24 2.16 1.38 -0.26 0.76 -2.18 0.65 -1.92 0.42 -1.26 1.54 -0.07 1.48 -0.05 1.47 0.45 1.26 0.05 1.26 -0.07 1.21 -0.22 1.43 0.35 1.35 0.11 1.97 0.29 1.27 0.37 1.26 0.04 1.13 -1.08 1.94 -0.07 1.2 0.59 1.76 -0.17 1.58 0.23 1.24 0.98 0.81 1.01 2.36 0.49 1.28 -0.96 1.1 -0.83 1.5 -0.55 1.49 0.3 1.28 -0.57 1.39 -0.15 1.71 0.7"/>
    <path d="M99.13 59.58 l-0.18 1.28 -0.66 1.07 -0.67 1.25 -1.34 0.74 -1.42 0.12 -1.51 -0.59 -1.28 -0.64 -1.3 0.54 -1.23 0.57 -0.91 1.38 -1.03 0.97 -1.45 -0.46 -1.29 -0.4 -0.58 1.56 -0.69 1.62 -0.64 1.27 -1.59 0.5 -1.45 0.27 -1.18 -0.97 -0.4 -1.36 -0.36 -1.58 0.08 -1.47 -0.56 -1.41 -1.26 -0.64 -0.74 -1.19 -0.22 -1.42 -0.67 -1.29 -0.47 -1.54 -1.04 -0.95 -0.9 -1.32 -1.19 -0.44 -0.4 -1.79 -1.35 0.12 -1.39 -0.25 -0.18 1.3 0.74 1.08 -0.11 1.32 -0.17 1.24 -0.52 1.18 -1.55 0.44 -1.45 0.57 -1.13 0.83 -1.33 0.09 -1.71 0.65 -1.46 0.85 -1.27 0.08 -1.42 -0.08 -1.5 0.78 -1.94 0.2 -1.25 0.13 -2.24 0.22 -2.13 0.18 -1.96 0.1 -1.69 0.13 -1.36 0.9 -0.53 1.12 0.15 1.23 -0.8 1.02 0.32 1.19 -0.51 1.13 -0.07 1.27 -0.37 1.17 0.1 1.23 0.32 1.21 -0.77 0.98 -0.36 1.18 -0.27 1.2 0.03 1.26 0.2 1.22 0.64 1.05 0.44 1.2 0.64 1.05 0.74 1.02 0.84 0.92 0.94 0.84 0.94 0.87 1.28 0.05 1.24 0.02 1.42 -0.51 1.19 -0.3 1.26 -0.3 1.23 0 1.26 -0.09 0.18 1.23 -0.24 1.22 -0.82 0.94 -0.26 1.24 0.24 1.22 -0.56 1.14 -0.45 1.15 -0.4 1.17 -0.69 1.04 0.21 1.23 0.75 0.97 1.05 0.75 1.17 -0.35 1.16 -0.51 0.52 1.11 0.78 1 0.82 0.93 0.87 0.89 1.16 0.44 1.05 0.64 0.16 0.36"/>
    <path d="M108.06 104.14 l-1.83 0.86 -1.19 0.74 -1.26 0.04 -1.04 0.77 -1.02 0.79 -0.02 1.31 -0.14 1.22 0.15 1.35 -1.45 -0.28 -1.29 0.06 -1.22 -0.43 -1.43 0.21 -1.15 -0.43 -0.57 -1.24 -0.59 -1.1 -1.01 -0.8 -1.51 -0.55 -0.77 1.1 -0.93 1.32 -1.1 0.58 -0.24 1.33 -1.28 0.67 -1.3 0.38 0.72 1.2 -0.2 1.25 0.12 1.35 0.31 1.25 0.31 1.19 0.04 1.25 0.74 0.99 -0.78 1.03 -0.05 1.42 0.04 1.35 -0.25 1.25 0.02 1.33 -0.49 1.21 0.8 1.11 -0.15 1.24 0.42 1.23 0.65 1.27 -0.04 1.06"/>
    <path d="M93.43 174.22 l-1.58 0.19 -1.53 -0.32 -1.31 0.99 -0.62 1.1 -0.87 1.04 -1.22 0.15 -1.88 2.03 -0.69 1.03 -0.74 0.99 -0.36 1.29 0.21 1.22 -0.8 1.54 -1.18 0.36 -1.22 0.48 -1.31 0.56 -0.54 1.18 -1.12 0.61 -1.09 0.73 -1.23 0.36 -1.06 0.72 -0.88 1.08 -0.44 2.13 0.1 1.26 -0.29 1.23 -1.03 0.78 0.36 1.24 1.02 0.77 0.3 1.23 0.65 1.11 -0.12 1.24 -0.79 1 -1.01 0.98 -0.26 1.25 0.43 1.16 -3.94 2.32 -3.84 2.44 -1.34 -0.64 -1.97 -0.57 -1.46 -0.8 -4.08 -2.75 -1.29 -0.47 -1.35 0.24 -1.39 0.34 -0.64 1.15 -1.05 0.89 -0.86 0.91 -0.77 1.07 -1.17 0.59 -0.02 0.84"/>
    <path d="M131.34 98.13 l1.15 0.45 1.33 0.05 4.02 2.65 -3.95 3.49 1.34 4.39 1.45 0.69 0.27 1.47 1.21 0.79 1.1 1 0.76 0.99 0.81 1.1 0.78 1.45 0.79 1.25 1.33 0.51 0.74 1.11 1.77 3.15 0.86 1.35 0.51 1.35 1.8 1.33 1.49 0.35 1.31 0.07 1.19 0.6 1.13 0.72 1.66 0.8 2.12 1.28 1.93 1.06 1.62 0.84 1.66 0.1 1.41 0.14 1.88 -0.02 -1.16 -0.65 0.03 -1.31 0.26 -1.5 -1.25 -0.6 -1.22 0.6 -0.96 -0.91 -0.38 -1.4 1.03 -0.88 0.35 -1.27 -0.6 -1.23 1.21 -0.51 -0.84 -0.92 -0.62 -1.32 1.55 -3.33 1.51 -0.09 1.22 -0.21 0.91 -0.83 0.98 -0.84 1.42 0.04 1.42 -0.24 1.24 0.4 1.12 0.53 1.22 -0.62 -0.65 -1.18 -1.26 -0.5 1.31 0.18 0.42 -1.27 -1.13 -0.51 0.35 -1.33 1.3 -0.36 -0.5 -1.13 1.25 0.31 0.24 -1.21 -0.85 -1 -1.22 -0.5 -1.21 -0.64 0.27 -1.27 1.11 -0.58 0.65 -1.28 0.51 -1.27 0.38 -1.29 -0.11 -1.28 1.29 -0.75 0.48 -1.38 0.47 -1.24 0.16 -1.3 0.05 -1.34 1.27 -0.54 0.61 -1.1 0.55 -1.21 0.5 -1.32 -1.37 0.18 0.4 -1.24 0.35 -1.4 1.32 -0.29 -0.84 -0.96 0.97 -0.97 -1.33 -0.75 1.29 -0.85 0.1 -1.24 -0.17 -1.4 0.02 -1.36 -1.07 -0.78 -1 -1.22 -0.98 -0.95 -0.63 -1.05 -1.46 -0.93 -1.15 -0.6 -1.31 -0.54 -0.19 -1.58 -1.62 0.1 -1.5 -0.12 -1.35 0.36 -1.46 -0.1 -1.15 -0.43 -1 -0.84 -1.36 -0.34 0.3 -1.24 0.79 -1.2 -1.13 -0.94 -0.81 -1.07 -1.03 -0.8 0.3 -1.36 -1.28 -0.65 -0.63 -1.3 -0.15 -1.39 -0.53 -1.21 0.45 -1.6 -0.38 -1.53 0.2 -1.57 -0.59 -1.44 -0.11 -1.23 -0.97 -0.98 -1.01 -1.3 -0.37 -1.24 -0.13 -1.31 0.21 -1.47 -0.13 -1.42 -0.96 -1.41 -0.31 -1.4 -0.78 -1.48 1.45 -0.74 1.14 -1.11 -1.51 -0.93 -0.73 0.99 -0.85 0.93 -1.38 0.15 -0.36 1.21 0.06 1.29 -0.65 1.07 0.22 1.3 -0.77 1 -1.25 -0.69 -1.26 0.14 -0.35 1.21 -0.83 1.39 -0.69 1.17 -1.59 0.18 -1.27 -0.13 -1.24 -0.32 -1.47 -0.22 -1.33 0.08 -1.26 -0.38 -1.18 -0.45 -1.1 -0.64"/>
    <path d="M232.45 78.53 l-1.94 -1.34 -1.21 0.63 -1.07 0.78 -0.82 -1.18 -0.32 -1.34 -1.03 -0.82 -1.44 0.48 -1.37 0.08 -1.28 -0.39 -0.22 -1.49 0.68 -1.39 0.15 -1.24 -2.3 -0.29 0.36 1.32 -0.98 1.48 -1.28 -0.17 -0.66 -1.09 -1.14 0.59 -1.14 -0.54 -0.87 1.3 -1.34 0.6 -1 -0.88 -0.63 -1.42 -0.65 -1.28 -1.7 -0.35 -1.45 -0.07 -0.9 -1.5 1.38 0.07 -0.12 -1.45 -0.15 -1.23 -1.23 -0.33 -0.55 -1.1 -1.3 -0.04 -1.29 -0.57 -1.22 -0.64 -1.2 0.27 -1.27 0.01 -0.78 -1.09 0.57 -1.3 0.67 -1.17 -1 -1.09 -1.13 -1.34 1.24 -0.21 -0.27 -1.32 -1.03 -1.11 -1.11 -0.6 0.16 -1.7 -1.38 0.19 -1.32 0.63 0.79 -1.18 -1.47 -0.14 1.11 -0.63 -1.28 -1.2 0.29 -1.87 -1.56 0.17 0.7 -1.3 -0.18 -1.32 -1.42 0.91 0.71 -1.02 -0.5 -1.4 0.99 -0.8 -1.06 -0.64 0.45 -1.18 -1.23 0.26 -1.03 0.82 -1.32 -0.14 -1.2 -0.98 -1.31 -0.36 -1.37 0.12 -1.35 0.19 -1.4 0.4 -1.62 0.08 -1.12 0.75 -1.18 -0.36 -1.28 -0.71 -1.05 -0.67 -0.68 -1.13 -0.93 -1.45 -1.5 -1.98 -0.68 -1.15 -1.07 -0.65 -1.03 -0.9 -1.18 0.34 -1.31 -0.05 -1.3 -0.07 -1.14 -0.56 -1.08 0.72 -1.42 1.12 -1.27 0.04 -1.29 0.11 -1.21 -0.39 -1.08 0.66 -0.48 0.27"/>
    <path d="M114.41 39.51 l-0.97 0.86 -1.25 0.19 -1.14 -0.51 -1.76 -0.64 -1.6 -0.38 -1.04 -0.76 -0.66 1.03 -1.17 0.52 -1.09 0.62 -1.19 -0.36 -1.19 -0.3 -1.23 0.1 -0.58 1.1 -0.66 1.03 -0.87 0.86 -0.84 0.92 -0.66 1.04 0.57 1.25 1.04 0.7 -0.52 1.69 -0.75 1.22 -1.4 0.7 -1.27 0.03 -1.09 -0.62 -0.01 -1.33 -0.39 -1.21 -1.39 -0.46 -0.87 -1.09 -1.09 -0.62 -1.54 -0.08 -1.49 -0.08 -2.69 -0.17 -1.35 0.04 -1.15 0.42 -1.09 0.63 -1.22 -0.3 -1 -0.75 0.95 -0.77 0.26 -1.21 0.02 -1.32 -0.49 -1.15 -1.21 -0.31 -1.22 0.32 -0.84 -0.95 -0.43 -1.21 -0.35 -1.2 0.26 -1.22 -1.01 -0.84 -1.21 -0.31 -1.26 -0.16 -0.93 0.87 -0.42 1.18 -1.36 -0.12 -1.27 -0.35 -0.89 -0.97 -1.21 -0.43 -1.1 1 -0.96 0.76 -0.85 0.99 -1.26 0.34 -0.73 1.01 0.52 1.2 -1.3 0.28 -0.24 1.2 -0.44 1.14 -0.88 1.07 -0.85 0.94 -0.44 1.19 -1.22 0.43 -0.8 0.97 -1.12 0.55 -1.24 0.02 -0.71 1.02 -0.76 1.06 -1.17 0.38 -1.2 -0.41 -1.1 -0.66 -0.32 1.21 -1 0.79 0.04 1.23 -0.82 0.95 -1.09 0.62 -1.26 0.47 -1.28 0.28 -0.96 0.8 -0.09 1.55 -0.4 1.22 -0.69 1.03 1.35 -0.21 -0.66 1.13 -1.17 0.4 -0.28 1.22 1.33 0.42 0.52 1.13 -0.92 0.85 1.16 0.44 1.15 0.43 -0.09 0.33"/>
    <path d="M166.95 132.64 l-0.07 1.27 1.23 0.91 1.33 0.69 1.32 0.7 -0.88 1.07 -1.21 -0.8 -1.22 0.12 -1.27 0.36 0.54 1.31 1.27 0.53 1.16 0.95 0.89 0.85 1.55 0.31 1.15 0.74 1.2 0.45 1.16 0.5 1.12 0.88 1.03 0.9 0.73 1.05 1.1 0.72 1.27 0.67 -1.31 -0.02 0.27 1.32 1.01 0.78 -0.52 1.26 0.09 1.27 -1.28 0.31 -1.23 -0.06 0.36 1.28 0.08 1.22 -1.26 0.12 -1.31 0.08 -1.44 0.33 -1.25 -0.14 -1.06 -0.65 0.01 1.24 -0.52 1.19 -0.77 1.01 -0.8 0.94 -0.42 1.16 -0.4 1.2 -0.67 1.05 -0.21 1.29 -0.35 1.23 -0.92 0.84 0.06 1.35 0.46 1.15 -0.82 0.92 -1.19 -0.45 -0.06 1.31 -0.66 1.21 0.12 1.3 -0.45 1.19 -0.2 1.25"/>
    <path d="M246.4 210.81 l-1.2 -1.43 -0.5 -1.24 -7.53 -4.74 -1.35 0.01 -3.89 -2.63 -1.19 -0.41 -1.2 -1.27 -1.1 -0.8 -1.75 -0.41 -1.21 -0.28 -1.1 -0.53 0.97 -0.86 -0.97 -1.73 -1.31 -0.36 -1.22 -0.9 -1.2 -0.3 -0.79 -1.08 -0.82 -0.95 -1.03 -0.75 -0.32 -1.32 -0.82 -1.06 -1 -0.86 -0.9 -0.13"/>
    <path d="M179.73 151.7 l0.94 1.12 0.85 1.23 0.75 1.05 0.9 1.07 1.11 0.79 1.25 0.18 0.21 1.23 0.82 1.03 1.67 0.8 1.06 1.1 0.96 0.94 1.36 -0.46 1.26 -0.26 1.42 0.21 1.3 -0.51 1.07 -0.62 1.22 -0.21 1.38 0 1.23 0.41 2.72 0.05 2.32 -0.7 1.67 -0.49 1.6 -0.55 1.34 -0.67 1.19 0.41 1.41 -0.07 1.21 0.27 1.23 0.1 1.21 -0.64 -0.12 1.26 0.21 1.26 1.06 1.02 0.51 1.44 -0.76 2.31 0.69 1.1 1.25 0.54 0.08 1.24 1.29 0.03 -0.18 1.26 0.34 1.18 0.81 1.13 0.42 1.23 0.13 1.27 0.27 1.51 0.66 1.74 -0.15 1.22 -1.07 0.67 -1.13 -0.59 -1.22 -0.13 -1.1 0.54 -0.61 1.16 -0.97 0.76 -1.37 0.3 -0.52 1.35 -0.46 0.4"/>
    <path d="M247.41 157.34 l-1.58 1.21 -1.39 0.58 -1.31 0.43 -1.59 0.2 -1.39 -0.22 -1.38 0.33 -1.22 1.3 -2.4 2.67 -1.29 1.79 -1.05 1.62 -2.68 0.14 -3.93 1.61 -1.23 0.24 -1.36 -0.03 -1.31 -0.27 -1.08 -0.38"/>
    <path d="M93.17 175.79 l0.31 1.37 0.18 1.27 1.23 1.5 1.31 -0.1 0.69 1.16 0.83 1.06 -1.5 0.54 -1.1 0.61 0.38 1.49 0.06 1.25 0.61 1.23 0.6 1.08 -0.73 0.99 -1.37 0.22 -0.43 1.23 -1.29 0.74 0.43 1.44 0.46 1.34 -0.43 1.33 0.01 1.61 -0.13 1.39 0.18 1.82 -1 1.09 0.61 1.22 0.68 1.06 -0.13 1.43 1.04 1.09 -0.48 1.42 -0.12 1.25 -0.38 1.56 0.36 1.81 -0.22 1.47 1.16 1.03 -0.58 1.28 -0.42 1.79 1.04 1.05 1.62 0.28 0.52 1.19 0.13 1.57 0.66 1.7 -0.27 1.3 0.38 1.29 -0.59 1.1 0.39 1.59 -0.61 1.7 -1.24 1.02 1.41 1.49 -6.61 5.02 -0.16 9.6"/>
    <path d="M145.35 234.53 l-0.42 1.55 -0.07 1.32 -0.65 1.41 -0.77 1.1 -0.48 1.14 -0.36 1.29 -0.46 1.22 -0.5 1.49 -1.33 -0.12 -1.35 -0.76 -1.22 0.58 -6.03 -0.6 -1.1 1.39 -1.3 0.51 -2.97 0.29 -0.57 1.09 0.25 1.49 0.22 1.89 0.18 1.62 1.09 2.82 0.32 1.32 0.56 1.24 0.57 1.42 0.86 1.08 1.82 1.13 1.22 1.1 0.13 2.43 0.06 1.35 0.16 1.36 0.82 0.94 1.12 0.94 -0.01 1.45 0.83 1.04 0.28 1.38 1.45 -0.43 2.32 -0.07 1.36 -0.11 0.96 0.94 1.49 0.77 -0.17 1.32 0.95 1.14 0.84 0.91 0.63 0.9"/>
    <path d="M181.51 89.23 l1.69 -0.02 1.35 -0.29 1.21 -0.41 1.52 -0.26 0.86 1.04 -0.09 1.3 1.18 0.59 1.31 0.54 1.45 0.54 1.57 -0.24 1.45 -0.49 1.17 0.62 0.3 1.23 0.7 1.05 -0.11 1.43 -0.14 1.56 1.26 0.88 0.53 1.39 0.76 1.08 0.9 1.22 1.28 0.43 1.15 0.51 0.74 1.08 -0.42 1.36 -0.22 1.37 -0.43 1.45 -0.37 1.55 -0.63 1.07 -0.86 1.19 18.81 1.41 1.34 0.19 1.5 -0.04 0.76 1.54 1.35 -0.25 1.44 0.61 0.93 0.94 1.31 0.29 0.87 1.39 0.15 1.44 0.27 1.34 0.95 2.14 1.45 -0.38 1.32 -0.41 1.29 1.14 0.5 1.67 1.26 1.01 1.11 0.87 1.02 -1.09 1.19 0.56 1.36 0.29 1.06 0.64 1.5 -0.07 1.1 -0.72 1.07 0.81 1.44 -0.38 1.56 0.35 0.99 0.97 1.45 -0.62 0.58 -0.22"/>
    <path d="M317.72 120.07 l1.43 -0.21 0.46 1.52 0.25 1.37 0.5 2.73 0.68 3.77 2.79 15.33 -0.01 1.55 0.13 3.33 -2.94 3.09 -1.23 0.05 -1.16 -0.41 -0.87 0.88 -0.62 1.07 1.56 2.9 -0.35 1.37 -3.77 0.51 -0.74 0.99 -0.77 0.96 -0.83 0.91 -0.6 1.08 -0.98 0.74 -0.61 -1.07 -0.83 1.65 -0.25 2.77 -0.9 0.93 -1.1 1.24 -0.59 1.58 -0.32 1.3 -1.24 2.34 -0.58 1.38 -0.53 1.22 -0.56 1.29 -0.72 1.38 -0.4 4.45 -0.08 1.59 -0.75 2.16 -0.19 1.53 -0.36 1.59 -0.29 1.31 -0.28 1.26 -0.37 3.57 0.92 1.37 -0.56 1.3 -0.73 1.16 -2.07 2.68 -0.41 3.55 -1.58 0.39 -0.53 0.25"/>
    <path d="M132.21 319.56 l-1.19 0.35 -1.13 0.5 -1.29 0.29 -1.2 0.32 -1.19 0.32 -1.15 0.47 -0.94 0.81 -1.2 0.27 -1.22 0.22 -1.23 0.18 -1.2 0.25 -1.2 0.29 -0.92 0.82 -1.02 0.73 -1.04 0.65 -1.22 0.25 -1.2 0.24 -0.87 0.9 -1.23 0.18 -1.25 0.14 -1.25 0.11 -1.23 0.15 -1.23 0.22 -1.25 0.17 -1.24 0.23 -1.24 0.22 -0.72 1.02 -0.95 0.78 -1.11 0.53 -0.93 0.86 -0.97 0.75 -0.91 0.83 -0.77 0.95 -1.11 0.53 -1.22 0.32 -1.25 0.15 -1.23 0.14 -1.24 0.19 -1.23 0.18 -1.06 0.65 -1.14 0.45 -1.06 0.64 -0.49 1.14 -1.2 0.29 -1.19 0.3 -0.83 0.9 -1.07 0.59 -1.04 0.69 -1.13 0.54 -1.03 0.68 -1.24 0.43 -1.21 0.17 -1.11 0.54 -1.29 0.08 -1.63 0.05 -1.07 -0.91 -0.89 -1.16 1.17 -1.51 -0.97 -0.92 0.08 -1.26 0.23 -1.21 -0.33 -1.38 0.11 -1.33 -0.45 -1.32 0.79 -1.03 -0.06 -1.62 -0.9 -0.91 0.57 -1.13 0.24 -1.2 -0.23 -1.41 -0.16 -1.34 0.1 -1.43 -1.05 -0.65 -0.55 -1.22 0.3 -1.25 0.03 -1.26 -0.39 -1.2 0.61 -1.07 1.2 -0.58 1.41 0.24 0.12 -1.43 -0.82 -1.06 0.17 -1.34 -0.53 -1.23 0.42 -1.2 -0.52 -1.14 0.41 -1.29 1.03 -0.76 1.48 -0.13 0.74 -1.26 0.61 -1.67 -0.23 -1.29 -0.42 -1.22 0.86 -1 0.04 -1.29 0.57 -1.21 1.16 -0.63 0.59 1.1 1.34 -0.67 -0.02 -1.25 1.1 -0.71 -0.58 -1.17 0.16 -1.46 -1.03 0.67 -1.21 -1.01 -0.52 -1.41 -0.69 -1.09 1.27 0.3 0.26 -1.29 -0.1 -1.35 0.79 -0.94 0.18 -1.25 0.14 -1.38 0.11 -1.32 0.78 -1.06 0.21 -1.23 -0.98 -0.84"/>
    <path d="M124.21 296.37 l-1.97 -1.23 -7.83 0.18 -1.16 -0.66 -1.65 -0.71 -0.9 -1.01 -0.2 -1.35 -0.24 -1.4 -1 -1.04 -1.21 -0.27 -1.19 -0.91 -0.92 -0.88 -8.88 -0.36 -3.94 -7.85 -0.3 -0.6"/>
    <path d="M125.46 246.45 l-1.17 0.55 -1.09 0.62 -1.38 0.46 -4.12 -2.94 -4.56 3.69 -3.04 0.01 -3.74 -0.07 -8.21 -8.79 -0.46 -1.14 1.22 -1.32 0.29 -1.34 -0.31 -1.32 -0.82 -1.3 -0.61 -0.45"/>
    <path d="M259.67 229.89 l1.19 -0.79 1.35 0.29 0.98 -0.89 1.16 0.72 -0.63 1.31 0.9 1.25 0.55 1.52 0.71 1.28 0.56 2 -0.59 1.37 1.44 1.54 0.35 1.49 1.04 1.45 2.15 0.42 0.85 -0.94 1.02 1.01 0.78 0.98 0.07 1.48 1.04 1.06 0.2 1.24 0.79 1.07 -1.09 0.61 -0.21 1.26 1.14 0.95 0.67 1.03 0.86 -1.16 0.77 1.71 0.78 1.1 -0.6 1.47 0.62 1.18 -1.21 0.26 0.73 1.24 0.33 1.22 0.46 1.17 -0.65 1.64 -1.39 0.41 -0.09 1.34 -0.66 1.44 -0.63 1.62 0.55 1.25 -0.13 1.52 -0.34 1.21 0.06 1.26 1.24 0.41 0.09 0.24"/>
   </g>
  </g>
  <g id="Map_decoration">
   <g style="stroke:#B0B0B0;stroke-width:0.5;font-family:Tahoma;font-size:12px;font-weight:bold" id="map_grid__latitude">
    <path style="fill:none" d="M-0.5 463.29 h365"/>
    <g style="stroke-width:2;stroke:#FFFFFF;fill:none;stroke-opacity:1">
     <text transform="translate(9.5,468.05) scale(0.85,1)">2°</text>
    </g>
    <g style="fill:#303030;stroke:none;fill-opacity:1">
     <text transform="translate(9.5,468.05) scale(0.85,1)">2°</text>
    </g>
    <path style="fill:none" d="M-0.5 362.47 h365"/>
    <g style="stroke-width:2;stroke:#FFFFFF;fill:none;stroke-opacity:1">
     <text transform="translate(9.5,367.22) scale(0.85,1)">4°</text>
    </g>
    <g style="fill:#303030;stroke:none;fill-opacity:1">
     <text transform="translate(9.5,367.22) scale(0.85,1)">4°</text>
    </g>
    <path style="fill:none" d="M-0.5 261.4 h365"/>
    <g style="stroke-width:2;stroke:#FFFFFF;fill:none;stroke-opacity:1">
     <text transform="translate(9.5,266.15) scale(0.85,1)">6°</text>
    </g>
    <g style="fill:#303030;stroke:none;fill-opacity:1">
     <text transform="translate(9.5,266.15) scale(0.85,1)">6°</text>
    </g>
    <path style="fill:none" d="M-0.5 159.95 h365"/>
    <g style="stroke-width:2;stroke:#FFFFFF;fill:none;stroke-opacity:1">
     <text transform="translate(9.5,164.71) scale(0.85,1)">8°</text>
    </g>
    <g style="fill:#303030;stroke:none;fill-opacity:1">
     <text transform="translate(9.5,164.71) scale(0.85,1)">8°</text>
    </g>
    <path style="fill:none" d="M-0.5 58.01 h365"/>
    <g style="stroke-width:2;stroke:#FFFFFF;fill:none;stroke-opacity:1">
     <text transform="translate(9.5,62.77) scale(0.85,1)">10°</text>
    </g>
    <g style="fill:#303030;stroke:none;fill-opacity:1">
     <text transform="translate(9.5,62.77) scale(0.85,1)">10°</text>
    </g>
   </g>
   <g style="stroke:#B0B0B0;stroke-width:0.5;font-family:Tahoma;font-size:12px;font-weight:bold" id="map_grid__longitude">
    <path style="fill:none" d="M46.73 400.5 v-401"/>
    <g style="stroke-width:2;stroke:#FFFFFF;fill:none;stroke-opacity:1">
     <text transform="translate(38.63,21.5) scale(0.85,1)">-8°</text>
    </g>
    <g style="fill:#303030;stroke:none;fill-opacity:1">
     <text transform="translate(38.63,21.5) scale(0.85,1)">-8°</text>
    </g>
    <path style="fill:none" d="M147.41 400.5 v-401"/>
    <g style="stroke-width:2;stroke:#FFFFFF;fill:none;stroke-opacity:1">
     <text transform="translate(139.31,21.5) scale(0.85,1)">-6°</text>
    </g>
    <g style="fill:#303030;stroke:none;fill-opacity:1">
     <text transform="translate(139.31,21.5) scale(0.85,1)">-6°</text>
    </g>
    <path style="fill:none" d="M248.09 400.5 v-401"/>
    <g style="stroke-width:2;stroke:#FFFFFF;fill:none;stroke-opacity:1">
     <text transform="translate(239.99,21.5) scale(0.85,1)">-4°</text>
    </g>
    <g style="fill:#303030;stroke:none;fill-opacity:1">
     <text transform="translate(239.99,21.5) scale(0.85,1)">-4°</text>
    </g>
    <path style="fill:none" d="M348.77 400.5 v-401"/>
    <g style="stroke-width:2;stroke:#FFFFFF;fill:none;stroke-opacity:1">
     <text transform="translate(340.67,21.5) scale(0.85,1)">-2°</text>
    </g>
    <g style="fill:#303030;stroke:none;fill-opacity:1">
     <text transform="translate(340.67,21.5) scale(0.85,1)">-2°</text>
    </g>
   </g>
   <g style="stroke:#000000;font-family:Tahoma;font-size:12px;font-weight:bold" id="map_scale__text">
    <g style="stroke-width:3;stroke:#FFFFFF;fill:none;stroke-opacity:1">
     <text transform="translate(27.8,392.52) scale(0.85,1)">1 : 8 627 783</text>
    </g>
    <g style="fill:#000000;stroke:none;fill-opacity:1">
     <text transform="translate(27.8,392.52) scale(0.85,1)">1 : 8 627 783</text>
    </g>
    <g style="stroke-width:3;stroke:#FFFFFF;fill:none;stroke-opacity:1">
     <text transform="translate(43.51,367.52) scale(0.85,1)">250 km</text>
    </g>
    <g style="fill:#000000;stroke:none;fill-opacity:1">
     <text transform="translate(43.51,367.52) scale(0.85,1)">250 km</text>
    </g>
   </g>
   <g style="fill:#000000;stroke:#000000" id="map_scale__indicator">
    <rect width="23.82" x="6" y="373" height="7" style="stroke:#000000"/>
   </g>
   <g style="fill:#FFFFFF;stroke:#000000" id="map_scale__indicator1">
    <rect width="23.82" x="28.82" y="373" height="7" style="stroke:#000000"/>
   </g>
   <g style="fill:#000000;stroke:#000000" id="map_scale__indicator11">
    <rect width="23.82" x="51.63" y="373" height="7" style="stroke:#000000"/>
   </g>
   <g style="fill:#FFFFFF;stroke:#000000" id="map_scale__indicator111">
    <rect width="23.82" x="74.45" y="373" height="7" style="stroke:#000000"/>
   </g>
   <g style="fill:#000000;stroke:#000000" id="map_scale__indicator1111">
    <rect width="23.82" x="97.26" y="373" height="7" style="stroke:#000000"/>
   </g>
   <g style="stroke:#000000;font-family:Tahoma;font-size:14px;font-weight:bold" id="floating_label">
    <g style="stroke-width:3;stroke:#FFFFFF;fill:none;stroke-opacity:0.75">
     <text transform="translate(127.34,393.1) scale(0.8,1)">Map data © OpenStreetMap contributors</text>
    </g>
    <g style="fill:#000000;stroke:none;fill-opacity:1">
     <text transform="translate(127.34,393.1) scale(0.8,1)">Map data © OpenStreetMap contributors</text>
    </g>
   </g>
  </g>
  <g style="stroke:black;stroke-width:2;fill:none" id="Map_frame">
   <rect width="365" x="0" y="0" height="401"/>
  </g>
 </g>
</svg>
